<svg width="350" height="350" viewBox="0 0 350 350" fill="none" xmlns="http://www.w3.org/2000/svg">
<path d="M0 40C0 17.9086 17.9086 0 40 0H310C332.091 0 350 17.9086 350 40C350 62.0914 332.091 80 310 80H40C17.9086 80 0 62.0914 0 40Z" fill="white"/>
<path d="M0 178.5C0 156.132 18.1325 138 40.5 138H269C313.735 138 350 174.265 350 219L237 219L40.5 219C18.1325 219 0 200.868 0 178.5Z" fill="white"/>
<path d="M350 219L237 219C279.5 219 279.5 269 237 269L350 269V219Z" fill="white"/>
<path d="M350 269L237 269L40.5 269C18.1325 269 0 287.132 0 309.5C0 331.868 18.1325 350 40.5 350H269C313.735 350 350 313.735 350 269Z" fill="white"/>
</svg>
